# xmcd
#
# Track frame offsets: 
#        150
#        12682
#        26356
#        39558
#        54281
#        66990
#        78658
#        92480
#        102882
#        116080
#        126736
#        138688
#        151430
#        162935
#        174119
#        185530
#        197293
#        210290
#        221957
#
# Disc length: 3102 seconds
#
# Revision: 0
# Processed by: cddbd v1.5.2PL0 Copyright (c) Steve Scherf et al.
# Submitted via: ExactAudioCopy v0.99pb4
#
DISCID=0c0c1c13
DTITLE=B.B. King - The Blues
DYEAR=1958
DGENRE=Blues
TTITLE0=Why Do Everything Happen To Me
TTITLE1=Ruby Lee
TTITLE2=When My Heart Beats Like A Hammer
TTITLE3=Past Day (Don't Have To Cry)
TTITLE4=Boogie Woogie Woman
TTITLE5=Early In The Morning
TTITLE6=I Want To Get Married
TTITLE7=That Ain't The Way To Do It
TTITLE8=Troubles Troubles Troubles
TTITLE9=Don't You Want A Man Like Me
TTITLE10=You Know I Go For You
TTITLE11=What Can I Do
TTITLE12=She's A Mean Woman
TTITLE13=B. B. Blues
TTITLE14=She's Dynamite
TTITLE15=Shake It Up And Go
TTITLE16=Someday Somewhere
TTITLE17=You Didn't Want Me
TTITLE18=Fine Looking Woman
EXTD=
EXTT0=
EXTT1=
EXTT2=
EXTT3=
EXTT4=
EXTT5=
EXTT6=
EXTT7=
EXTT8=
EXTT9=
EXTT10=
EXTT11=
EXTT12=
EXTT13=
EXTT14=
EXTT15=
EXTT16=
EXTT17=
EXTT18=
PLAYORDER=
